<svg xmlns="http://www.w3.org/2000/svg" viewBox="0 0 114 114"><path fill="#8cc0e8" stroke="#8cc0e8" d="M0 57.008v57.008l57.25-.258 57.25-.258.258-56.75.259-56.75H0v57.008m.468.492c0 31.35.127 44.03.282 28.179.154-15.852.154-41.502-.001-57C.594 13.18.468 26.15.468 57.5M17 58.5V84h12.451c14.648 0 21.505-1.251 25.56-4.663 6.373-5.362 6.129-16.26-.462-20.581l-3.363-2.204 2.907-3.311c6.264-7.134 2.458-17.443-7.121-19.291-2.46-.475-10.209-.882-17.222-.906L17 33v25.5m53.923-22.75c-.042.413-.227 1.538-.411 2.5-.303 1.58.724 1.75 10.576 1.75H92v-5H81.5c-5.775 0-10.534.337-10.577.75M28 48v6l6.25-.014c8.513-.018 10.642-.734 11.468-3.855C47.379 43.859 44.999 42 35.309 42H28v6m47.655-.594c-14.589 5.402-16.769 27.103-3.473 34.576 6.212 3.491 16.856 2.909 21.893-1.198 2.412-1.967 5.28-6.762 4.507-7.536-1.294-1.293-7.851-.075-9.907 1.84-4.609 4.294-13.723 1.673-15.089-4.338L72.962 68H100v-2.851c0-13.127-12.401-22.166-24.345-17.743m.543 8.344C70.802 60.416 72.129 62 81.433 62c9.446 0 10.215-.635 6.494-5.365-2.511-3.193-8.534-3.648-11.729-.885M28 67.897V75h8.309c9.293 0 11.356-.932 12.26-5.537 1.131-5.765-1.95-7.904-11.981-8.316L28 60.795v7.102" fill-rule="evenodd"/><path fill="#0494ec" stroke="#0494ec" d="M0 57.008v57.008l57.25-.258 57.25-.258.258-56.75.259-56.75H0v57.008m.468.492c0 31.35.127 44.03.282 28.179.154-15.852.154-41.502-.001-57C.594 13.18.468 26.15.468 57.5m16.041-22.25c.13 1.237.293 12.712.363 25.5L17 84h15.184c17.292 0 22.025-1.366 25.778-7.439 3.676-5.948 1.654-16.412-3.637-18.823l-2.358-1.074 1.996-2.125c3.224-3.431 4.321-7.771 3.106-12.284C54.987 34.524 50.693 33 30.987 33c-14.662 0-14.713.008-14.478 2.25M70 37.5V40h23v-5H70v2.5m-41.333 5.167c-.367.366-.667 2.841-.667 5.5V53h7.8c8.548 0 10.2-.833 10.2-5.143C46 43.817 42.725 42 35.444 42c-3.361 0-6.411.3-6.777.667m44.649 5.276c-11.298 5.13-13.982 23.817-4.636 32.269 9.111 8.239 26.19 5.151 30.226-5.464C99.948 72.007 99.939 72 95.521 72c-3.392 0-5.016.586-6.93 2.5C83.833 79.258 74 76.256 74 70.045 74 68.09 74.57 68 87 68h13v-3.935c0-13.751-13.688-22.022-26.684-16.122m3.319 8.13c-5.255 4.133-3.598 5.577 5.844 5.092 7.176-.369 8.172-1.549 4.332-5.126-2.804-2.612-6.829-2.599-10.176.034M28 68.5V75h7.777C45.183 75 48 73.524 48 68.598 48 63.316 45.641 62 36.171 62H28v6.5" fill-rule="evenodd"/><path fill="#0e7bdd" stroke="#0e7bdd" d="M32.5 32.946c19.372.681 21.432 1.314 24.122 7.419 1.003 2.274 2.285 4.466 2.85 4.87.637.455.502.74-.353.75-1.023.011-1.241.986-.841 3.765.296 2.063.311 3.169.033 2.459-.351-.897-1.257-.48-2.967 1.365l-2.461 2.656 2.064 1.445c5.82 4.077 6.943 15.102 2.101 20.618C52.88 83.04 48.52 84 31.134 84H16V34H0v80.016l57.25-.258 57.25-.258.261-40 .261-40-10.261-.106c-5.643-.059-16.405-.284-23.915-.5-7.51-.217-13.135-.063-12.5.341.843.537.817.738-.096.75-.687.008-1.25.497-1.25 1.086 0 .59-.675 1.747-1.5 2.572-.897.897-1.5 1.046-1.5.369 0-.621-.403-.881-.895-.577-.493.305-1.168-.156-1.5-1.023-.854-2.224-.85-2.23 1.645-2.667 2.06-.36 2.094-.462.399-1.215-1.082-.48-2.12-.406-2.5.18-.903 1.393-8.551 2.75-7.695 1.365.394-.638.039-.818-.902-.457-.854.328-1.552.136-1.552-.427 0-.662-6.26-.991-17.75-.933l-17.75.091 17 .597M.456 74c0 22.275.132 31.388.293 20.25.161-11.137.161-29.362 0-40.5C.588 42.613.456 51.725.456 74m68.681-39.108c-1.151.731-1.151.95 0 1.408 1.086.432 1.095.558.042.621-1.034.062-1.001.4.153 1.554 1.055 1.055 4.422 1.577 11.821 1.835 5.691.199 11.247.732 12.347 1.185 1.1.453 1.691.481 1.314.062-.378-.42-.276-1.841.225-3.16 1.155-3.038.21-3.176-1.008-.147-.878 2.184-.906 2.172-.968-.427-.041-1.757.538-2.82 1.687-3.096.963-.231-4.1-.483-11.25-.561-7.15-.077-13.613.249-14.363.726m-2.324 4.791c.721.289 1.584.253 1.916-.079.332-.332-.258-.568-1.312-.525-1.165.048-1.402.285-.604.604m-7.207 1.733c.335.871 1.047 1.584 1.584 1.584 1.315 0 .492-2.273-1.003-2.771-.731-.244-.954.214-.581 1.187m24.894.563c2.226.98 7.152 1.34 6.271.459-.31-.31-2.297-.738-4.417-.951-2.834-.285-3.325-.155-1.854.492m-55.421 1.604c.048 1.165.285 1.402.604.605.289-.722.253-1.585-.079-1.917-.332-.332-.568.258-.525 1.312M31 44c0 1.1-.45 2-1 2s-1 1.575-1 3.5V53h6.845c9.629 0 13.092-4.394 7.213-9.154C39.686 41.115 31 41.226 31 44m45-1c-2.01.644-2.108.806-.5.83 1.1.016 2.9-.357 4-.83 2.548-1.095-.081-1.095-3.5 0m11.813 1.683c.721.289 1.584.253 1.916-.079.332-.332-.258-.568-1.312-.525-1.165.048-1.402.285-.604.604m-46.2 2.5c.289.467.944.591 1.456.274 1.308-.808 1.161-1.124-.525-1.124-.801 0-1.22.383-.931.85m31.887.334c-1.65.889-4.085 2.598-5.411 3.799-1.326 1.201-2.044 1.552-1.596.779.553-.952.439-1.171-.355-.68-.644.398-.946 1.087-.67 1.533.275.445-.217 2.246-1.093 4.002-2.426 4.863-1.551 15.698 1.65 20.424 8.067 11.915 28.485 9.708 33.527-3.624 1.16-3.067-7.977-2.412-11.852.849C82.591 78.898 74 75.914 74 69.84c0-1.827.759-1.93 13.25-1.798l13.25.14-.148-4.431c-.189-5.631-3.38-11.923-7.557-14.897-4.242-3.02-14.809-3.752-19.295-1.337m20.666-.641c-1.098.696-1.083.942.083 1.389.809.311 1.418-.059 1.418-.86 0-.773-.038-1.398-.084-1.39-.046.009-.683.396-1.417.861m-28.715 2.203c-.253.41.204.648 1.015.529 2.09-.307 2.841-1.275.99-1.275-.849 0-1.751.336-2.005.746M80 54.889c0 .489-.787.826-1.75.75-1.281-.102-1.7.532-1.563 2.361.102 1.375-.049 1.935-.336 1.244-.562-1.354-2.351-.733-2.351.815 0 .518 3.375.941 7.5.941 8.185 0 8.925-.666 5.045-4.545C84.169 54.078 80 53.081 80 54.889M29 68.462V75h6.865c10.436 0 15.37-5.151 10.225-10.673-1.566-1.681-3.277-2.082-9.5-2.227L29 61.924v6.538" fill-rule="evenodd"/><path fill="#1462d3" stroke="#1462d3" d="M24.75 32.743c3.988.189 10.513.189 14.5 0 3.987-.19.725-.346-7.25-.346s-11.238.156-7.25.346m24.25.65c0 .216.698.661 1.552.989.89.341 1.291.173.941-.393-.587-.951-2.493-1.406-2.493-.596m30.264 12.325c1.52.229 3.77.223 5-.014 1.23-.237-.014-.425-2.764-.418-2.75.008-3.756.202-2.236.432M88 46c0 .55.477 1 1.059 1s.781-.45.441-1-.816-1-1.059-1-.441.45-.441 1m-15.442.907c-.309.498.34.671 1.441.383 2.335-.611 2.63-1.29.56-1.29-.793 0-1.693.408-2.001.907m22.982 4.688c2.383 2.451 4.519 5.683 4.746 7.181l.414 2.724.15-2.809c.099-1.845.546-2.564 1.305-2.096.721.446.882.274.43-.457-.398-.644-1.104-.935-1.569-.648-.465.287-1.773-.978-2.906-2.812-1.133-1.834-3.15-3.831-4.481-4.437-1.813-.827-1.334.015 1.911 3.354m-28.658-2.631c-.066.295-.05.921.035 1.391.084.471-.368 1.483-1.004 2.25-2.038 2.456-.498 1.492 2.223-1.391 2.325-2.463 2.411-2.785.747-2.785-1.036 0-1.936.241-2.001.535m-24.585 2.139c-.621.621-3.333.949-6.201.75-2.803-.194-5.097-.016-5.097.397.002 1.382 10.45.725 12.442-.782 1.068-.807 1.495-1.468.95-1.468-.545 0-1.487.496-2.094 1.103m11.419 4.515c-.357.356.499 1.55 1.901 2.653 1.402 1.103 2.934 2.956 3.403 4.117l.853 2.112.064-2.143c.034-1.179-.659-2.42-1.541-2.758-.945-.363-1.36-1.25-1.011-2.159.372-.969.182-1.291-.508-.864-.605.374-1.419.166-1.807-.463-.389-.629-.998-.852-1.354-.495m21.299 3.632C75.002 60.751 75.994 61 82 61c3.85 0 7-.337 7-.75s-2.813-.702-6.25-.644c-3.575.061-6.564-.367-6.985-1-.455-.686-.74-.441-.75.644M43.638 63.5c.317.825 1.033 1.5 1.591 1.5.586 0 .489-.635-.229-1.5-.685-.825-1.401-1.5-1.591-1.5-.19 0-.087.675.229 1.5m57.441.083c.048 1.165.285 1.402.604.605.289-.722.253-1.585-.079-1.917-.332-.332-.568.258-.525 1.312m-60.455.956c-.965 2.514-.681 3.163.498 1.136.584-1.004.851-2.036.593-2.293-.257-.258-.749.263-1.091 1.157M60.195 67.5c.02 1.65.244 2.204.498 1.231.254-.973.237-2.323-.037-3-.274-.677-.481.119-.461 1.769m-14.991.518c.623 1.756-.85 4.982-2.274 4.982-.654 0-.641-.672.038-1.939.69-1.29.702-2.147.035-2.559-1.557-.962-2.865.308-2.349 2.281.403 1.541-.098 1.728-3.713 1.383-2.725-.26-4.459.054-4.983.903-.553.893-1.111.224-1.78-2.134l-.976-3.435.065 3.851.065 3.851 7.293-.368c8.745-.442 13.026-3.326 9.769-6.583-1.295-1.295-1.587-1.352-1.19-.233m31.546.644c.688.278 1.25 1.394 1.25 2.48 0 1.087.408 1.724.906 1.416 1.462-.903.013-4.565-1.773-4.479-1.036.05-1.176.263-.383.583M97 69c0 .55-1.013 1.005-2.25 1.011-1.237.006-4.398.663-7.024 1.459-2.626.797-5.551 1.2-6.5.895-1.299-.417-1.396-.317-.391.402 1.057.757.947 1.057-.53 1.443-2.016.527-3.489-.619-4.629-3.603-.398-1.041-.971-1.646-1.273-1.343-.303.303.159 1.922 1.026 3.598 2.355 4.555 7.427 5.248 12.134 1.658 2.971-2.266 4.35-2.65 8.493-2.363 2.72.189 5.135-.107 5.366-.657.231-.55.456-.213.499.75.043.963-.371 1.75-.921 1.75s-1 .675-1 1.5-.477 1.5-1.059 1.5-.76.483-.396 1.073c.412.666 1.248.24 2.201-1.121 1.409-2.011 1.619-2.051 2.5-.477.648 1.158.582 2.094-.202 2.871-.881.875-1.001.73-.496-.596.366-.963.216-1.75-.334-1.75s-1.27.704-1.6 1.563c-.33.86-1.073 1.272-1.651.914-1.266-.782-4.156 1.401-3.424 2.586.284.46-.366 1.309-1.445 1.887-2.974 1.591-3.957 1.187-1.094-.45 3.435-1.963 1.63-1.877-2.204.105-6.753 3.493-19.584 1.148-23.693-4.33-1.145-1.526-2.559-3.343-3.143-4.038-.584-.694-.871-1.594-.636-2 .234-.405.023-1.637-.47-2.737-.819-1.831-.859-1.809-.464.268.238 1.247-.203 2.902-.979 3.678-.776.776-1.411 1.92-1.411 2.542 0 .621-.526.805-1.17.407-.801-.495-.955-.164-.489 1.052.496 1.291.289 1.625-.757 1.224-1.911-.734-4.202 1.891-2.376 2.723.711.323.223.318-1.083-.01-1.307-.329-2.137-.213-1.846.259.671 1.085-1.428 1.219-19.529 1.254-9.499.019-14.75.398-14.75 1.066 0 .57-.45 1.037-1 1.037s-.947-.338-.882-.75c.066-.412.066-3.562 0-7L16 72H0v42.016l57.25-.258 57.25-.258.27-21 .269-21-5.269.359c-2.899.198-5.626.873-6.062 1.5-.482.695-.677.358-.5-.859.235-1.611-.231-1.965-2.4-1.82-1.966.132-2.544-.205-2.143-1.25.302-.786.051-1.43-.558-1.43-.609 0-1.107.45-1.107 1m-17 1c0 .55 1.8 1 4 1s4-.45 4-1-1.8-1-4-1-4 .45-4 1M.425 93c0 11.825.144 16.663.321 10.75.177-5.912.177-15.587 0-21.5C.569 76.338.425 81.175.425 93M83 74.177c-1.428.601-1.975 1.249-1.276 1.512.674.253 2.236-.248 3.473-1.114 2.542-1.781 1.53-1.964-2.197-.398m-21.393 2.405c-.855 2.227-.932 2.109 2.547 3.845 4.028 2.01 4.917 2.012 2.052.005-1.285-.9-1.937-2.072-1.531-2.75.39-.65-.117-.511-1.127.31-1.697 1.379-1.783 1.323-1.125-.75.805-2.535.117-3.092-.816-.66m28.206 10.101c.721.289 1.584.253 1.916-.079.332-.332-.258-.568-1.312-.525-1.165.048-1.402.285-.604.604" fill-rule="evenodd"/></svg>